<svg width="900" height="507" viewBox="0 0 900 507" fill="none" xmlns="http://www.w3.org/2000/svg">
<path d="M0 25C0 11.1929 11.1929 0 25 0H875C888.807 0 900 11.1929 900 25V482C900 495.807 888.807 507 875 507H25C11.1929 507 0 495.807 0 482V25Z" fill="white"/>
<path d="M364.224 305.996H508.776C526.231 305.996 535 297.355 535 280.236V178.76C535 161.641 526.231 153 508.776 153H364.224C346.854 153.004 338 161.563 338 178.76V280.24C338 297.441 346.854 305.996 364.224 305.996ZM476.709 229.294C472.95 225.972 468.692 224.224 464.185 224.224C459.506 224.224 455.413 225.805 451.572 229.213L413.828 262.788L398.379 248.824C394.87 245.75 391.111 244.087 387.106 244.087C383.429 244.087 379.837 245.669 376.417 248.743L351.447 271.092V179.434C351.447 170.789 356.122 166.385 364.473 166.385H508.527C516.793 166.385 521.553 170.789 521.553 179.434V271.181L476.709 229.294ZM400.214 230.209C410.989 230.209 419.839 221.401 419.839 210.597C419.839 199.879 410.989 190.986 400.214 190.986C389.361 190.986 380.511 199.879 380.511 210.597C380.52 215.795 382.599 220.778 386.292 224.453C389.985 228.129 394.991 230.199 400.214 230.209Z" fill="#56A9ED" fill-opacity="0.5"/>
<path d="M314.332 327.34V323.695H315.937C316.417 322.515 316.707 321.025 316.807 319.225L317.047 314.575H323.422V321.655L323.392 323.695H325.072V327.34H323.782V325H315.622V327.34H314.332ZM317.467 323.71L320.212 323.695L321.967 323.71L321.937 321.67V317.005L321.967 315.85L320.797 315.88H319.762L318.457 315.85L318.262 319.3C318.172 320.9 317.907 322.315 317.467 323.545V323.71ZM331.645 324.1C331.015 324.8 330.17 325.15 329.11 325.15C328.05 325.15 327.2 324.8 326.56 324.1C325.93 323.39 325.615 322.445 325.615 321.265C325.615 320.075 325.93 319.125 326.56 318.415C327.2 317.705 328.05 317.35 329.11 317.35C330.17 317.35 331.015 317.705 331.645 318.415C332.275 319.125 332.59 320.075 332.59 321.265C332.59 322.455 332.275 323.4 331.645 324.1ZM327.58 323.23C327.96 323.7 328.47 323.935 329.11 323.935C329.75 323.935 330.25 323.7 330.61 323.23C330.98 322.75 331.165 322.09 331.165 321.25C331.165 320.41 330.98 319.755 330.61 319.285C330.25 318.805 329.75 318.565 329.11 318.565C328.47 318.565 327.96 318.805 327.58 319.285C327.21 319.755 327.025 320.41 327.025 321.25C327.025 322.09 327.21 322.75 327.58 323.23ZM337.184 325.105C335.854 325.105 334.884 324.6 334.274 323.59C333.814 322.86 333.584 321.76 333.584 320.29C333.584 318.5 334.059 317.095 335.009 316.075C335.259 315.795 335.569 315.545 335.939 315.325C336.309 315.105 336.609 314.955 336.839 314.875C337.069 314.785 337.379 314.68 337.769 314.56C338.209 314.42 338.529 314.285 338.729 314.155C338.929 314.025 339.029 313.84 339.029 313.6H340.619C340.609 314.05 340.469 314.405 340.199 314.665C339.929 314.925 339.519 315.165 338.969 315.385C338.839 315.435 338.589 315.525 338.219 315.655C337.859 315.775 337.579 315.88 337.379 315.97C337.179 316.05 336.919 316.185 336.599 316.375C336.279 316.565 336.024 316.765 335.834 316.975C335.654 317.185 335.479 317.47 335.309 317.83C335.139 318.18 335.024 318.575 334.964 319.015H335.174C335.664 318.075 336.514 317.605 337.724 317.605C338.584 317.605 339.284 317.95 339.824 318.64C340.374 319.32 340.649 320.225 340.649 321.355C340.649 322.465 340.334 323.37 339.704 324.07C339.084 324.76 338.244 325.105 337.184 325.105ZM337.184 323.905C337.794 323.905 338.284 323.675 338.654 323.215C339.034 322.755 339.224 322.135 339.224 321.355C339.224 320.595 339.034 319.98 338.654 319.51C338.284 319.04 337.794 318.805 337.184 318.805C336.564 318.805 336.059 319.04 335.669 319.51C335.279 319.98 335.084 320.595 335.084 321.355C335.084 322.125 335.264 322.745 335.624 323.215C335.994 323.675 336.514 323.905 337.184 323.905ZM344.151 325.15C343.391 325.15 342.781 324.965 342.321 324.595C341.871 324.215 341.646 323.72 341.646 323.11C341.646 322.85 341.681 322.615 341.751 322.405C341.821 322.185 341.901 322 341.991 321.85C342.091 321.69 342.236 321.55 342.426 321.43C342.616 321.31 342.786 321.21 342.936 321.13C343.096 321.05 343.316 320.985 343.596 320.935C343.876 320.875 344.101 320.835 344.271 320.815C344.451 320.785 344.706 320.765 345.036 320.755C345.376 320.735 345.626 320.725 345.786 320.725C345.956 320.725 346.216 320.725 346.566 320.725C346.686 320.725 346.776 320.725 346.836 320.725V320.095C346.836 319.635 346.696 319.265 346.416 318.985C346.146 318.705 345.756 318.565 345.246 318.565C344.716 318.565 344.281 318.715 343.941 319.015C343.611 319.305 343.416 319.71 343.356 320.23L341.976 320.155C342.056 319.275 342.401 318.59 343.011 318.1C343.621 317.6 344.366 317.35 345.246 317.35C346.166 317.35 346.896 317.605 347.436 318.115C347.986 318.615 348.261 319.335 348.261 320.275V325H347.136L347.046 323.725H346.881C346.691 324.165 346.356 324.515 345.876 324.775C345.406 325.025 344.831 325.15 344.151 325.15ZM344.496 323.89C345.156 323.89 345.711 323.7 346.161 323.32C346.611 322.93 346.836 322.475 346.836 321.955V321.835C345.396 321.835 344.446 321.9 343.986 322.03C343.386 322.21 343.081 322.52 343.071 322.96C343.071 323.58 343.546 323.89 344.496 323.89ZM349.999 325V317.5H353.629C355.419 317.5 356.314 318.19 356.314 319.57C356.314 320.41 355.924 320.94 355.144 321.16V321.34C355.984 321.55 356.404 322.08 356.404 322.93C356.404 324.31 355.499 325 353.689 325H349.999ZM351.409 320.785L353.224 320.755C353.864 320.755 354.309 320.67 354.559 320.5C354.809 320.33 354.934 320.045 354.934 319.645C354.934 319.245 354.809 318.96 354.559 318.79C354.309 318.62 353.864 318.535 353.224 318.535H352.174L351.409 318.52L351.424 319.375V319.96L351.409 320.785ZM351.409 323.98L352.174 323.965H353.284C353.914 323.965 354.359 323.88 354.619 323.71C354.879 323.53 355.009 323.24 355.009 322.84C355.009 322.45 354.879 322.17 354.619 322C354.359 321.83 353.914 321.745 353.284 321.745H352.189L351.409 321.73L351.424 322.615V323.23L351.409 323.98ZM357.089 325.03V323.77C357.729 323.77 358.179 323.55 358.439 323.11C358.699 322.66 358.844 322.01 358.874 321.16L359.024 317.5H364.409V325H362.984V319.72L362.999 318.685L362.054 318.7H361.259L360.359 318.685L360.329 319.585L360.269 321.145C360.219 322.425 359.939 323.395 359.429 324.055C358.919 324.705 358.139 325.03 357.089 325.03ZM369.248 325.15C368.188 325.15 367.328 324.8 366.668 324.1C366.008 323.39 365.678 322.445 365.678 321.265C365.678 320.085 365.993 319.14 366.623 318.43C367.263 317.71 368.113 317.35 369.173 317.35C370.213 317.35 371.043 317.705 371.663 318.415C372.283 319.125 372.593 320.065 372.593 321.235C372.593 321.435 372.588 321.58 372.578 321.67H368.093L367.073 321.655C367.113 322.365 367.323 322.93 367.703 323.35C368.093 323.76 368.608 323.965 369.248 323.965C369.768 323.965 370.198 323.84 370.538 323.59C370.888 323.33 371.123 322.965 371.243 322.495L372.533 322.615C372.343 323.425 371.958 324.05 371.378 324.49C370.798 324.93 370.088 325.15 369.248 325.15ZM367.103 320.65L368.123 320.62H370.193L371.228 320.65C371.168 319.97 370.948 319.445 370.568 319.075C370.198 318.705 369.733 318.52 369.173 318.52C368.603 318.52 368.128 318.705 367.748 319.075C367.368 319.445 367.153 319.97 367.103 320.65ZM373.949 325V317.5H375.374V319.3L375.359 320.59L376.469 320.575H377.939L379.184 320.59L379.154 319.315V317.5H380.579V325H379.154V322.96L379.184 321.745L377.924 321.76H376.469L375.359 321.745L375.374 322.96V325H373.949ZM382.255 325V317.5H383.65V321.4L383.515 323.14H383.725L387.34 317.5H388.975V325H387.58V321.1L387.73 319.36H387.505L383.89 325H382.255ZM393.814 325.15C392.754 325.15 391.894 324.8 391.234 324.1C390.574 323.39 390.244 322.445 390.244 321.265C390.244 320.085 390.559 319.14 391.189 318.43C391.829 317.71 392.679 317.35 393.739 317.35C394.779 317.35 395.609 317.705 396.229 318.415C396.849 319.125 397.159 320.065 397.159 321.235C397.159 321.435 397.154 321.58 397.144 321.67H392.659L391.639 321.655C391.679 322.365 391.889 322.93 392.269 323.35C392.659 323.76 393.174 323.965 393.814 323.965C394.334 323.965 394.764 323.84 395.104 323.59C395.454 323.33 395.689 322.965 395.809 322.495L397.099 322.615C396.909 323.425 396.524 324.05 395.944 324.49C395.364 324.93 394.654 325.15 393.814 325.15ZM391.669 320.65L392.689 320.62H394.759L395.794 320.65C395.734 319.97 395.514 319.445 395.134 319.075C394.764 318.705 394.299 318.52 393.739 318.52C393.169 318.52 392.694 318.705 392.314 319.075C391.934 319.445 391.719 319.97 391.669 320.65ZM402.689 328.6V317.5H404.129V317.995L404.039 318.85H404.234C404.734 317.89 405.539 317.41 406.649 317.41C407.529 317.41 408.264 317.755 408.854 318.445C409.444 319.135 409.739 320.07 409.739 321.25C409.739 322.42 409.444 323.355 408.854 324.055C408.264 324.745 407.529 325.09 406.649 325.09C406.079 325.09 405.584 324.955 405.164 324.685C404.754 324.405 404.444 324.055 404.234 323.635H404.039L404.129 324.55V328.6H402.689ZM406.214 323.86C406.824 323.86 407.319 323.63 407.699 323.17C408.079 322.7 408.269 322.06 408.269 321.25C408.269 320.44 408.079 319.805 407.699 319.345C407.319 318.875 406.824 318.64 406.214 318.64C405.584 318.64 405.079 318.87 404.699 319.33C404.329 319.79 404.144 320.43 404.144 321.25C404.144 322.06 404.334 322.7 404.714 323.17C405.094 323.63 405.594 323.86 406.214 323.86ZM413.277 325.15C412.517 325.15 411.907 324.965 411.447 324.595C410.997 324.215 410.772 323.72 410.772 323.11C410.772 322.85 410.807 322.615 410.877 322.405C410.947 322.185 411.027 322 411.117 321.85C411.217 321.69 411.362 321.55 411.552 321.43C411.742 321.31 411.912 321.21 412.062 321.13C412.222 321.05 412.442 320.985 412.722 320.935C413.002 320.875 413.227 320.835 413.397 320.815C413.577 320.785 413.832 320.765 414.162 320.755C414.502 320.735 414.752 320.725 414.912 320.725C415.082 320.725 415.342 320.725 415.692 320.725C415.812 320.725 415.902 320.725 415.962 320.725V320.095C415.962 319.635 415.822 319.265 415.542 318.985C415.272 318.705 414.882 318.565 414.372 318.565C413.842 318.565 413.407 318.715 413.067 319.015C412.737 319.305 412.542 319.71 412.482 320.23L411.102 320.155C411.182 319.275 411.527 318.59 412.137 318.1C412.747 317.6 413.492 317.35 414.372 317.35C415.292 317.35 416.022 317.605 416.562 318.115C417.112 318.615 417.387 319.335 417.387 320.275V325H416.262L416.172 323.725H416.007C415.817 324.165 415.482 324.515 415.002 324.775C414.532 325.025 413.957 325.15 413.277 325.15ZM413.622 323.89C414.282 323.89 414.837 323.7 415.287 323.32C415.737 322.93 415.962 322.475 415.962 321.955V321.835C414.522 321.835 413.572 321.9 413.112 322.03C412.512 322.21 412.207 322.52 412.197 322.96C412.197 323.58 412.672 323.89 413.622 323.89ZM422.379 325.105C421.049 325.105 420.079 324.6 419.469 323.59C419.009 322.86 418.779 321.76 418.779 320.29C418.779 318.5 419.254 317.095 420.204 316.075C420.454 315.795 420.764 315.545 421.134 315.325C421.504 315.105 421.804 314.955 422.034 314.875C422.264 314.785 422.574 314.68 422.964 314.56C423.404 314.42 423.724 314.285 423.924 314.155C424.124 314.025 424.224 313.84 424.224 313.6H425.814C425.804 314.05 425.664 314.405 425.394 314.665C425.124 314.925 424.714 315.165 424.164 315.385C424.034 315.435 423.784 315.525 423.414 315.655C423.054 315.775 422.774 315.88 422.574 315.97C422.374 316.05 422.114 316.185 421.794 316.375C421.474 316.565 421.219 316.765 421.029 316.975C420.849 317.185 420.674 317.47 420.504 317.83C420.334 318.18 420.219 318.575 420.159 319.015H420.369C420.859 318.075 421.709 317.605 422.919 317.605C423.779 317.605 424.479 317.95 425.019 318.64C425.569 319.32 425.844 320.225 425.844 321.355C425.844 322.465 425.529 323.37 424.899 324.07C424.279 324.76 423.439 325.105 422.379 325.105ZM422.379 323.905C422.989 323.905 423.479 323.675 423.849 323.215C424.229 322.755 424.419 322.135 424.419 321.355C424.419 320.595 424.229 319.98 423.849 319.51C423.479 319.04 422.989 318.805 422.379 318.805C421.759 318.805 421.254 319.04 420.864 319.51C420.474 319.98 420.279 320.595 420.279 321.355C420.279 322.125 420.459 322.745 420.819 323.215C421.189 323.675 421.709 323.905 422.379 323.905ZM432.836 324.1C432.206 324.8 431.361 325.15 430.301 325.15C429.241 325.15 428.391 324.8 427.751 324.1C427.121 323.39 426.806 322.445 426.806 321.265C426.806 320.075 427.121 319.125 427.751 318.415C428.391 317.705 429.241 317.35 430.301 317.35C431.361 317.35 432.206 317.705 432.836 318.415C433.466 319.125 433.781 320.075 433.781 321.265C433.781 322.455 433.466 323.4 432.836 324.1ZM428.771 323.23C429.151 323.7 429.661 323.935 430.301 323.935C430.941 323.935 431.441 323.7 431.801 323.23C432.171 322.75 432.356 322.09 432.356 321.25C432.356 320.41 432.171 319.755 431.801 319.285C431.441 318.805 430.941 318.565 430.301 318.565C429.661 318.565 429.151 318.805 428.771 319.285C428.401 319.755 428.216 320.41 428.216 321.25C428.216 322.09 428.401 322.75 428.771 323.23ZM437.12 325V319.915L437.135 318.67L436.01 318.7H434.345V317.5H441.305V318.7H439.565L438.515 318.67L438.545 319.9V325H437.12ZM452.187 324.1C451.557 324.8 450.712 325.15 449.652 325.15C448.592 325.15 447.742 324.8 447.102 324.1C446.472 323.39 446.157 322.445 446.157 321.265C446.157 320.075 446.472 319.125 447.102 318.415C447.742 317.705 448.592 317.35 449.652 317.35C450.712 317.35 451.557 317.705 452.187 318.415C452.817 319.125 453.132 320.075 453.132 321.265C453.132 322.455 452.817 323.4 452.187 324.1ZM448.122 323.23C448.502 323.7 449.012 323.935 449.652 323.935C450.292 323.935 450.792 323.7 451.152 323.23C451.522 322.75 451.707 322.09 451.707 321.25C451.707 320.41 451.522 319.755 451.152 319.285C450.792 318.805 450.292 318.565 449.652 318.565C449.012 318.565 448.502 318.805 448.122 319.285C447.752 319.755 447.567 320.41 447.567 321.25C447.567 322.09 447.752 322.75 448.122 323.23ZM457.636 325.15C456.546 325.15 455.681 324.79 455.041 324.07C454.411 323.35 454.096 322.415 454.096 321.265C454.096 320.105 454.411 319.165 455.041 318.445C455.681 317.715 456.541 317.35 457.621 317.35C458.541 317.35 459.296 317.605 459.886 318.115C460.476 318.625 460.821 319.34 460.921 320.26L459.556 320.38C459.476 319.78 459.261 319.325 458.911 319.015C458.571 318.705 458.136 318.55 457.606 318.55C456.946 318.55 456.426 318.795 456.046 319.285C455.676 319.765 455.491 320.425 455.491 321.265C455.491 322.075 455.681 322.725 456.061 323.215C456.451 323.695 456.976 323.935 457.636 323.935C458.176 323.935 458.616 323.785 458.956 323.485C459.306 323.175 459.526 322.715 459.616 322.105L460.966 322.225C460.876 323.145 460.531 323.865 459.931 324.385C459.341 324.895 458.576 325.15 457.636 325.15ZM462.884 328.615C462.594 328.615 462.234 328.6 461.804 328.57V327.295C462.244 327.315 462.519 327.325 462.629 327.325C463.039 327.325 463.359 327.225 463.589 327.025C463.829 326.835 464.049 326.495 464.249 326.005L464.609 325.12L461.444 317.5H463.064L464.939 322.42L465.194 323.485H465.374L465.644 322.42L467.384 317.5H468.989L465.599 326.17C465.249 327.09 464.869 327.725 464.459 328.075C464.049 328.435 463.524 328.615 462.884 328.615ZM480.647 323.785H481.772V327.34H480.482V325H470.072V317.5H471.497V322.315L471.482 323.815L472.637 323.785H473.462L474.557 323.815L474.527 322.27V317.5H475.922V322.27L475.907 323.815L477.107 323.785H477.962L478.967 323.815L478.937 322.195V317.5H480.362V323.8L480.647 323.785ZM485.952 325.15C484.892 325.15 484.032 324.8 483.372 324.1C482.712 323.39 482.382 322.445 482.382 321.265C482.382 320.085 482.697 319.14 483.327 318.43C483.967 317.71 484.817 317.35 485.877 317.35C486.917 317.35 487.747 317.705 488.367 318.415C488.987 319.125 489.297 320.065 489.297 321.235C489.297 321.435 489.292 321.58 489.282 321.67H484.797L483.777 321.655C483.817 322.365 484.027 322.93 484.407 323.35C484.797 323.76 485.312 323.965 485.952 323.965C486.472 323.965 486.902 323.84 487.242 323.59C487.592 323.33 487.827 322.965 487.947 322.495L489.237 322.615C489.047 323.425 488.662 324.05 488.082 324.49C487.502 324.93 486.792 325.15 485.952 325.15ZM483.807 320.65L484.827 320.62H486.897L487.932 320.65C487.872 319.97 487.652 319.445 487.272 319.075C486.902 318.705 486.437 318.52 485.877 318.52C485.307 318.52 484.832 318.705 484.452 319.075C484.072 319.445 483.857 319.97 483.807 320.65ZM493.833 325.15C492.743 325.15 491.878 324.79 491.238 324.07C490.608 323.35 490.293 322.415 490.293 321.265C490.293 320.105 490.608 319.165 491.238 318.445C491.878 317.715 492.738 317.35 493.818 317.35C494.738 317.35 495.493 317.605 496.083 318.115C496.673 318.625 497.018 319.34 497.118 320.26L495.753 320.38C495.673 319.78 495.458 319.325 495.108 319.015C494.768 318.705 494.333 318.55 493.803 318.55C493.143 318.55 492.623 318.795 492.243 319.285C491.873 319.765 491.688 320.425 491.688 321.265C491.688 322.075 491.878 322.725 492.258 323.215C492.648 323.695 493.173 323.935 493.833 323.935C494.373 323.935 494.813 323.785 495.153 323.485C495.503 323.175 495.723 322.715 495.813 322.105L497.163 322.225C497.073 323.145 496.728 323.865 496.128 324.385C495.538 324.895 494.773 325.15 493.833 325.15ZM500.445 325V319.915L500.46 318.67L499.335 318.7H497.67V317.5H504.63V318.7H502.89L501.84 318.67L501.87 319.9V325H500.445ZM505.771 325V317.5H509.401C511.191 317.5 512.086 318.19 512.086 319.57C512.086 320.41 511.696 320.94 510.916 321.16V321.34C511.756 321.55 512.176 322.08 512.176 322.93C512.176 324.31 511.271 325 509.461 325H505.771ZM507.181 320.785L508.996 320.755C509.636 320.755 510.081 320.67 510.331 320.5C510.581 320.33 510.706 320.045 510.706 319.645C510.706 319.245 510.581 318.96 510.331 318.79C510.081 318.62 509.636 318.535 508.996 318.535H507.946L507.181 318.52L507.196 319.375V319.96L507.181 320.785ZM507.181 323.98L507.946 323.965H509.056C509.686 323.965 510.131 323.88 510.391 323.71C510.651 323.53 510.781 323.24 510.781 322.84C510.781 322.45 510.651 322.17 510.391 322C510.131 321.83 509.686 321.745 509.056 321.745H507.961L507.181 321.73L507.196 322.615V323.23L507.181 323.98ZM512.861 325.03V323.77C513.501 323.77 513.951 323.55 514.211 323.11C514.471 322.66 514.616 322.01 514.646 321.16L514.796 317.5H520.181V325H518.756V319.72L518.771 318.685L517.826 318.7H517.031L516.131 318.685L516.101 319.585L516.041 321.145C515.991 322.425 515.711 323.395 515.201 324.055C514.691 324.705 513.911 325.03 512.861 325.03ZM521.403 325L522.723 322.885L523.338 322.045V321.955C522.798 321.835 522.368 321.6 522.048 321.25C521.738 320.9 521.583 320.435 521.583 319.855C521.583 319.115 521.823 318.54 522.303 318.13C522.793 317.71 523.503 317.5 524.433 317.5H527.823V325H526.398V323.47L526.413 322.165L525.693 322.18H525.258L524.658 322.165L523.023 325H521.403ZM526.413 321.07L526.398 320.29V319.315L526.413 318.61L525.603 318.625H524.613C523.523 318.625 522.978 319.035 522.978 319.855C522.978 320.655 523.523 321.055 524.613 321.055H525.603L526.413 321.07ZM532.666 325.15C531.606 325.15 530.746 324.8 530.086 324.1C529.426 323.39 529.096 322.445 529.096 321.265C529.096 320.085 529.411 319.14 530.041 318.43C530.681 317.71 531.531 317.35 532.591 317.35C533.631 317.35 534.461 317.705 535.081 318.415C535.701 319.125 536.011 320.065 536.011 321.235C536.011 321.435 536.006 321.58 535.996 321.67H531.511L530.491 321.655C530.531 322.365 530.741 322.93 531.121 323.35C531.511 323.76 532.026 323.965 532.666 323.965C533.186 323.965 533.616 323.84 533.956 323.59C534.306 323.33 534.541 322.965 534.661 322.495L535.951 322.615C535.761 323.425 535.376 324.05 534.796 324.49C534.216 324.93 533.506 325.15 532.666 325.15ZM530.521 320.65L531.541 320.62H533.611L534.646 320.65C534.586 319.97 534.366 319.445 533.986 319.075C533.616 318.705 533.151 318.52 532.591 318.52C532.021 318.52 531.546 318.705 531.166 319.075C530.786 319.445 530.571 319.97 530.521 320.65ZM539.395 325V319.915L539.41 318.67L538.285 318.7H536.62V317.5H543.58V318.7H541.84L540.79 318.67L540.82 319.9V325H539.395ZM547.666 325.15C546.576 325.15 545.711 324.79 545.071 324.07C544.441 323.35 544.126 322.415 544.126 321.265C544.126 320.105 544.441 319.165 545.071 318.445C545.711 317.715 546.571 317.35 547.651 317.35C548.571 317.35 549.326 317.605 549.916 318.115C550.506 318.625 550.851 319.34 550.951 320.26L549.586 320.38C549.506 319.78 549.291 319.325 548.941 319.015C548.601 318.705 548.166 318.55 547.636 318.55C546.976 318.55 546.456 318.795 546.076 319.285C545.706 319.765 545.521 320.425 545.521 321.265C545.521 322.075 545.711 322.725 546.091 323.215C546.481 323.695 547.006 323.935 547.666 323.935C548.206 323.935 548.646 323.785 548.986 323.485C549.336 323.175 549.556 322.715 549.646 322.105L550.996 322.225C550.906 323.145 550.561 323.865 549.961 324.385C549.371 324.895 548.606 325.15 547.666 325.15ZM551.725 325L553.045 322.885L553.66 322.045V321.955C553.12 321.835 552.69 321.6 552.37 321.25C552.06 320.9 551.905 320.435 551.905 319.855C551.905 319.115 552.145 318.54 552.625 318.13C553.115 317.71 553.825 317.5 554.755 317.5H558.145V325H556.72V323.47L556.735 322.165L556.015 322.18H555.58L554.98 322.165L553.345 325H551.725ZM556.735 321.07L556.72 320.29V319.315L556.735 318.61L555.925 318.625H554.935C553.845 318.625 553.3 319.035 553.3 319.855C553.3 320.655 553.845 321.055 554.935 321.055H555.925L556.735 321.07ZM331.799 347V344.945L331.934 343.94H331.769C331.259 344.35 330.604 344.555 329.804 344.555C328.964 344.555 328.279 344.36 327.749 343.97C327.219 343.57 326.954 342.94 326.954 342.08V339.5H328.379V341.975C328.379 342.465 328.519 342.815 328.799 343.025C329.079 343.235 329.494 343.34 330.044 343.34C330.664 343.34 331.249 343.225 331.799 342.995V339.5H333.224V347H331.799ZM338.077 347.15C337.017 347.15 336.157 346.8 335.497 346.1C334.837 345.39 334.507 344.445 334.507 343.265C334.507 342.085 334.822 341.14 335.452 340.43C336.092 339.71 336.942 339.35 338.002 339.35C339.042 339.35 339.872 339.705 340.492 340.415C341.112 341.125 341.422 342.065 341.422 343.235C341.422 343.435 341.417 343.58 341.407 343.67H336.922L335.902 343.655C335.942 344.365 336.152 344.93 336.532 345.35C336.922 345.76 337.437 345.965 338.077 345.965C338.597 345.965 339.027 345.84 339.367 345.59C339.717 345.33 339.952 344.965 340.072 344.495L341.362 344.615C341.172 345.425 340.787 346.05 340.207 346.49C339.627 346.93 338.917 347.15 338.077 347.15ZM335.932 342.65L336.952 342.62H339.022L340.057 342.65C339.997 341.97 339.777 341.445 339.397 341.075C339.027 340.705 338.562 340.52 338.002 340.52C337.432 340.52 336.957 340.705 336.577 341.075C336.197 341.445 335.982 341.97 335.932 342.65ZM342.675 350.6V339.5H344.115V339.995L344.025 340.85H344.22C344.72 339.89 345.525 339.41 346.635 339.41C347.515 339.41 348.25 339.755 348.84 340.445C349.43 341.135 349.725 342.07 349.725 343.25C349.725 344.42 349.43 345.355 348.84 346.055C348.25 346.745 347.515 347.09 346.635 347.09C346.065 347.09 345.57 346.955 345.15 346.685C344.74 346.405 344.43 346.055 344.22 345.635H344.025L344.115 346.55V350.6H342.675ZM346.2 345.86C346.81 345.86 347.305 345.63 347.685 345.17C348.065 344.7 348.255 344.06 348.255 343.25C348.255 342.44 348.065 341.805 347.685 341.345C347.305 340.875 346.81 340.64 346.2 340.64C345.57 340.64 345.065 340.87 344.685 341.33C344.315 341.79 344.13 342.43 344.13 343.25C344.13 344.06 344.32 344.7 344.7 345.17C345.08 345.63 345.58 345.86 346.2 345.86ZM354.292 347.15C353.232 347.15 352.372 346.8 351.712 346.1C351.052 345.39 350.722 344.445 350.722 343.265C350.722 342.085 351.037 341.14 351.667 340.43C352.307 339.71 353.157 339.35 354.217 339.35C355.257 339.35 356.087 339.705 356.707 340.415C357.327 341.125 357.637 342.065 357.637 343.235C357.637 343.435 357.632 343.58 357.622 343.67H353.137L352.117 343.655C352.157 344.365 352.367 344.93 352.747 345.35C353.137 345.76 353.652 345.965 354.292 345.965C354.812 345.965 355.242 345.84 355.582 345.59C355.932 345.33 356.167 344.965 356.287 344.495L357.577 344.615C357.387 345.425 357.002 346.05 356.422 346.49C355.842 346.93 355.132 347.15 354.292 347.15ZM352.147 342.65L353.167 342.62H355.237L356.272 342.65C356.212 341.97 355.992 341.445 355.612 341.075C355.242 340.705 354.777 340.52 354.217 340.52C353.647 340.52 353.172 340.705 352.792 341.075C352.412 341.445 352.197 341.97 352.147 342.65ZM361.814 347.15C360.894 347.15 360.124 346.95 359.504 346.55C358.894 346.15 358.544 345.545 358.454 344.735L359.879 344.615C359.949 345.055 360.149 345.39 360.479 345.62C360.819 345.85 361.264 345.965 361.814 345.965C362.344 345.965 362.759 345.855 363.059 345.635C363.369 345.415 363.524 345.115 363.524 344.735C363.524 343.925 362.969 343.52 361.859 343.52H361.559V342.65H361.859C362.829 342.65 363.314 342.305 363.314 341.615C363.314 341.275 363.184 341.01 362.924 340.82C362.674 340.62 362.324 340.52 361.874 340.52C360.864 340.52 360.279 340.955 360.119 341.825L358.799 341.705C358.889 340.975 359.204 340.4 359.744 339.98C360.294 339.56 361.004 339.35 361.874 339.35C362.724 339.35 363.399 339.55 363.899 339.95C364.399 340.35 364.649 340.865 364.649 341.495C364.649 342.235 364.284 342.725 363.554 342.965V343.145C363.964 343.225 364.294 343.415 364.544 343.715C364.794 344.005 364.919 344.38 364.919 344.84C364.919 345.53 364.639 346.09 364.079 346.52C363.529 346.94 362.774 347.15 361.814 347.15ZM370.346 350.6V339.5H371.786V339.995L371.696 340.85H371.891C372.391 339.89 373.196 339.41 374.306 339.41C375.186 339.41 375.921 339.755 376.511 340.445C377.101 341.135 377.396 342.07 377.396 343.25C377.396 344.42 377.101 345.355 376.511 346.055C375.921 346.745 375.186 347.09 374.306 347.09C373.736 347.09 373.241 346.955 372.821 346.685C372.411 346.405 372.101 346.055 371.891 345.635H371.696L371.786 346.55V350.6H370.346ZM373.871 345.86C374.481 345.86 374.976 345.63 375.356 345.17C375.736 344.7 375.926 344.06 375.926 343.25C375.926 342.44 375.736 341.805 375.356 341.345C374.976 340.875 374.481 340.64 373.871 340.64C373.241 340.64 372.736 340.87 372.356 341.33C371.986 341.79 371.801 342.43 371.801 343.25C371.801 344.06 371.991 344.7 372.371 345.17C372.751 345.63 373.251 345.86 373.871 345.86ZM381.963 347.15C380.903 347.15 380.043 346.8 379.383 346.1C378.723 345.39 378.393 344.445 378.393 343.265C378.393 342.085 378.708 341.14 379.338 340.43C379.978 339.71 380.828 339.35 381.888 339.35C382.928 339.35 383.758 339.705 384.378 340.415C384.998 341.125 385.308 342.065 385.308 343.235C385.308 343.435 385.303 343.58 385.293 343.67H380.808L379.788 343.655C379.828 344.365 380.038 344.93 380.418 345.35C380.808 345.76 381.323 345.965 381.963 345.965C382.483 345.965 382.913 345.84 383.253 345.59C383.603 345.33 383.838 344.965 383.958 344.495L385.248 344.615C385.058 345.425 384.673 346.05 384.093 346.49C383.513 346.93 382.803 347.15 381.963 347.15ZM379.818 342.65L380.838 342.62H382.908L383.943 342.65C383.883 341.97 383.663 341.445 383.283 341.075C382.913 340.705 382.448 340.52 381.888 340.52C381.318 340.52 380.843 340.705 380.463 341.075C380.083 341.445 379.868 341.97 379.818 342.65ZM385.567 349.28V345.785H386.857C387.217 345.075 387.427 344.2 387.487 343.16L387.712 339.5H393.037V345.785H394.387V349.28H393.097V347.885L393.112 346.985L392.092 347H388.042L386.842 346.985L386.857 347.885V349.28H385.567ZM388.297 345.815L389.542 345.785H390.637L391.657 345.815L391.627 344.3V341.855L391.657 340.67L390.652 340.7H390.022L389.032 340.67L388.867 343.235C388.787 344.345 388.597 345.165 388.297 345.695V345.815ZM397.662 347.15C396.902 347.15 396.292 346.965 395.832 346.595C395.382 346.215 395.157 345.72 395.157 345.11C395.157 344.85 395.192 344.615 395.262 344.405C395.332 344.185 395.412 344 395.502 343.85C395.602 343.69 395.747 343.55 395.937 343.43C396.127 343.31 396.297 343.21 396.447 343.13C396.607 343.05 396.827 342.985 397.107 342.935C397.387 342.875 397.612 342.835 397.782 342.815C397.962 342.785 398.217 342.765 398.547 342.755C398.887 342.735 399.137 342.725 399.297 342.725C399.467 342.725 399.727 342.725 400.077 342.725C400.197 342.725 400.287 342.725 400.347 342.725V342.095C400.347 341.635 400.207 341.265 399.927 340.985C399.657 340.705 399.267 340.565 398.757 340.565C398.227 340.565 397.792 340.715 397.452 341.015C397.122 341.305 396.927 341.71 396.867 342.23L395.487 342.155C395.567 341.275 395.912 340.59 396.522 340.1C397.132 339.6 397.877 339.35 398.757 339.35C399.677 339.35 400.407 339.605 400.947 340.115C401.497 340.615 401.772 341.335 401.772 342.275V347H400.647L400.557 345.725H400.392C400.202 346.165 399.867 346.515 399.387 346.775C398.917 347.025 398.342 347.15 397.662 347.15ZM398.007 345.89C398.667 345.89 399.222 345.7 399.672 345.32C400.122 344.93 400.347 344.475 400.347 343.955V343.835C398.907 343.835 397.957 343.9 397.497 344.03C396.897 344.21 396.592 344.52 396.582 344.96C396.582 345.58 397.057 345.89 398.007 345.89ZM410.35 339.5V339.59L407.065 342.65L410.35 346.88V347H408.655L406.105 343.535L404.935 344.63V347H403.51V339.5H404.935V342.125L404.845 343.22H405.01L405.625 342.35L408.565 339.5H410.35ZM413.639 347V341.915L413.654 340.67L412.529 340.7H410.864V339.5H417.824V340.7H416.084L415.034 340.67L415.064 341.9V347H413.639ZM418.964 347V339.5H420.359V343.4L420.224 345.14H420.434L424.049 339.5H425.684V347H424.289V343.1L424.439 341.36H424.214L420.599 347H418.964ZM427.27 350.6V339.5H428.71V339.995L428.62 340.85H428.815C429.315 339.89 430.12 339.41 431.23 339.41C432.11 339.41 432.845 339.755 433.435 340.445C434.025 341.135 434.32 342.07 434.32 343.25C434.32 344.42 434.025 345.355 433.435 346.055C432.845 346.745 432.11 347.09 431.23 347.09C430.66 347.09 430.165 346.955 429.745 346.685C429.335 346.405 429.025 346.055 428.815 345.635H428.62L428.71 346.55V350.6H427.27ZM430.795 345.86C431.405 345.86 431.9 345.63 432.28 345.17C432.66 344.7 432.85 344.06 432.85 343.25C432.85 342.44 432.66 341.805 432.28 341.345C431.9 340.875 431.405 340.64 430.795 340.64C430.165 340.64 429.66 340.87 429.28 341.33C428.91 341.79 428.725 342.43 428.725 343.25C428.725 344.06 428.915 344.7 429.295 345.17C429.675 345.63 430.175 345.86 430.795 345.86ZM441.347 346.1C440.717 346.8 439.872 347.15 438.812 347.15C437.752 347.15 436.902 346.8 436.262 346.1C435.632 345.39 435.317 344.445 435.317 343.265C435.317 342.075 435.632 341.125 436.262 340.415C436.902 339.705 437.752 339.35 438.812 339.35C439.872 339.35 440.717 339.705 441.347 340.415C441.977 341.125 442.292 342.075 442.292 343.265C442.292 344.455 441.977 345.4 441.347 346.1ZM437.282 345.23C437.662 345.7 438.172 345.935 438.812 345.935C439.452 345.935 439.952 345.7 440.312 345.23C440.682 344.75 440.867 344.09 440.867 343.25C440.867 342.41 440.682 341.755 440.312 341.285C439.952 340.805 439.452 340.565 438.812 340.565C438.172 340.565 437.662 340.805 437.282 341.285C436.912 341.755 436.727 342.41 436.727 343.25C436.727 344.09 436.912 344.75 437.282 345.23ZM443.573 347V339.5H447.203C448.993 339.5 449.888 340.19 449.888 341.57C449.888 342.41 449.498 342.94 448.718 343.16V343.34C449.558 343.55 449.978 344.08 449.978 344.93C449.978 346.31 449.073 347 447.263 347H443.573ZM444.983 342.785L446.798 342.755C447.438 342.755 447.883 342.67 448.133 342.5C448.383 342.33 448.508 342.045 448.508 341.645C448.508 341.245 448.383 340.96 448.133 340.79C447.883 340.62 447.438 340.535 446.798 340.535H445.748L444.983 340.52L444.998 341.375V341.96L444.983 342.785ZM444.983 345.98L445.748 345.965H446.858C447.488 345.965 447.933 345.88 448.193 345.71C448.453 345.53 448.583 345.24 448.583 344.84C448.583 344.45 448.453 344.17 448.193 344C447.933 343.83 447.488 343.745 446.858 343.745H445.763L444.983 343.73L444.998 344.615V345.23L444.983 345.98ZM453.604 347.15C452.844 347.15 452.234 346.965 451.774 346.595C451.324 346.215 451.099 345.72 451.099 345.11C451.099 344.85 451.134 344.615 451.204 344.405C451.274 344.185 451.354 344 451.444 343.85C451.544 343.69 451.689 343.55 451.879 343.43C452.069 343.31 452.239 343.21 452.389 343.13C452.549 343.05 452.769 342.985 453.049 342.935C453.329 342.875 453.554 342.835 453.724 342.815C453.904 342.785 454.159 342.765 454.489 342.755C454.829 342.735 455.079 342.725 455.239 342.725C455.409 342.725 455.669 342.725 456.019 342.725C456.139 342.725 456.229 342.725 456.289 342.725V342.095C456.289 341.635 456.149 341.265 455.869 340.985C455.599 340.705 455.209 340.565 454.699 340.565C454.169 340.565 453.734 340.715 453.394 341.015C453.064 341.305 452.869 341.71 452.809 342.23L451.429 342.155C451.509 341.275 451.854 340.59 452.464 340.1C453.074 339.6 453.819 339.35 454.699 339.35C455.619 339.35 456.349 339.605 456.889 340.115C457.439 340.615 457.714 341.335 457.714 342.275V347H456.589L456.499 345.725H456.334C456.144 346.165 455.809 346.515 455.329 346.775C454.859 347.025 454.284 347.15 453.604 347.15ZM453.949 345.89C454.609 345.89 455.164 345.7 455.614 345.32C456.064 344.93 456.289 344.475 456.289 343.955V343.835C454.849 343.835 453.899 343.9 453.439 344.03C452.839 344.21 452.534 344.52 452.524 344.96C452.524 345.58 452.999 345.89 453.949 345.89ZM459.452 347V339.5H460.877V341.3L460.862 342.59L461.972 342.575H463.442L464.687 342.59L464.657 341.315V339.5H466.082V347H464.657V344.96L464.687 343.745L463.427 343.76H461.972L460.862 343.745L460.877 344.96V347H459.452ZM467.758 347V339.5H469.153V343.4L469.018 345.14H469.228L472.843 339.5H474.478V347H473.083V343.1L473.233 341.36H473.008L469.393 347H467.758ZM479.317 347.15C478.257 347.15 477.397 346.8 476.737 346.1C476.077 345.39 475.747 344.445 475.747 343.265C475.747 342.085 476.062 341.14 476.692 340.43C477.332 339.71 478.182 339.35 479.242 339.35C480.282 339.35 481.112 339.705 481.732 340.415C482.352 341.125 482.662 342.065 482.662 343.235C482.662 343.435 482.657 343.58 482.647 343.67H478.162L477.142 343.655C477.182 344.365 477.392 344.93 477.772 345.35C478.162 345.76 478.677 345.965 479.317 345.965C479.837 345.965 480.267 345.84 480.607 345.59C480.957 345.33 481.192 344.965 481.312 344.495L482.602 344.615C482.412 345.425 482.027 346.05 481.447 346.49C480.867 346.93 480.157 347.15 479.317 347.15ZM477.172 342.65L478.192 342.62H480.262L481.297 342.65C481.237 341.97 481.017 341.445 480.637 341.075C480.267 340.705 479.802 340.52 479.242 340.52C478.672 340.52 478.197 340.705 477.817 341.075C477.437 341.445 477.222 341.97 477.172 342.65ZM488.192 347V339.5H494.822V347H493.397V342.275L493.412 340.67L491.942 340.7H490.922L489.602 340.67L489.617 342.26V347H488.192ZM496.41 350.6V339.5H497.85V339.995L497.76 340.85H497.955C498.455 339.89 499.26 339.41 500.37 339.41C501.25 339.41 501.985 339.755 502.575 340.445C503.165 341.135 503.46 342.07 503.46 343.25C503.46 344.42 503.165 345.355 502.575 346.055C501.985 346.745 501.25 347.09 500.37 347.09C499.8 347.09 499.305 346.955 498.885 346.685C498.475 346.405 498.165 346.055 497.955 345.635H497.76L497.85 346.55V350.6H496.41ZM499.935 345.86C500.545 345.86 501.04 345.63 501.42 345.17C501.8 344.7 501.99 344.06 501.99 343.25C501.99 342.44 501.8 341.805 501.42 341.345C501.04 340.875 500.545 340.64 499.935 340.64C499.305 340.64 498.8 340.87 498.42 341.33C498.05 341.79 497.865 342.43 497.865 343.25C497.865 344.06 498.055 344.7 498.435 345.17C498.815 345.63 499.315 345.86 499.935 345.86ZM510.488 346.1C509.858 346.8 509.013 347.15 507.953 347.15C506.893 347.15 506.043 346.8 505.403 346.1C504.773 345.39 504.458 344.445 504.458 343.265C504.458 342.075 504.773 341.125 505.403 340.415C506.043 339.705 506.893 339.35 507.953 339.35C509.013 339.35 509.858 339.705 510.488 340.415C511.118 341.125 511.433 342.075 511.433 343.265C511.433 344.455 511.118 345.4 510.488 346.1ZM506.423 345.23C506.803 345.7 507.313 345.935 507.953 345.935C508.593 345.935 509.093 345.7 509.453 345.23C509.823 344.75 510.008 344.09 510.008 343.25C510.008 342.41 509.823 341.755 509.453 341.285C509.093 340.805 508.593 340.565 507.953 340.565C507.313 340.565 506.803 340.805 506.423 341.285C506.053 341.755 505.868 342.41 505.868 343.25C505.868 344.09 506.053 344.75 506.423 345.23ZM516.478 350.6V348.32L516.508 347.165C515.138 347.095 514.103 346.71 513.403 346.01C512.713 345.31 512.368 344.395 512.368 343.265C512.368 342.125 512.713 341.205 513.403 340.505C514.103 339.795 515.138 339.405 516.508 339.335L516.478 338.345V336.575H517.903V338.315L517.873 339.335C519.253 339.405 520.288 339.79 520.978 340.49C521.678 341.19 522.028 342.115 522.028 343.265C522.028 344.415 521.678 345.335 520.978 346.025C520.288 346.715 519.253 347.095 517.873 347.165L517.903 348.335V350.6H516.478ZM517.873 345.98C518.803 345.93 519.493 345.665 519.943 345.185C520.403 344.695 520.633 344.05 520.633 343.25C520.633 342.45 520.403 341.81 519.943 341.33C519.493 340.84 518.803 340.57 517.873 340.52L517.903 341.675V344.705L517.873 345.98ZM516.508 345.965L516.478 344.705V341.66L516.508 340.535C515.608 340.585 514.928 340.855 514.468 341.345C514.008 341.825 513.778 342.46 513.778 343.25C513.778 344.03 514.008 344.665 514.468 345.155C514.928 345.635 515.608 345.905 516.508 345.965ZM523.334 347V339.5H524.729V343.4L524.594 345.14H524.804L528.419 339.5H530.054V347H528.659V343.1L528.809 341.36H528.584L524.969 347H523.334ZM530.966 347.03V345.77C531.606 345.77 532.056 345.55 532.316 345.11C532.576 344.66 532.721 344.01 532.751 343.16L532.901 339.5H538.286V347H536.861V341.72L536.876 340.685L535.931 340.7H535.136L534.236 340.685L534.206 341.585L534.146 343.145C534.096 344.425 533.816 345.395 533.306 346.055C532.796 346.705 532.016 347.03 530.966 347.03ZM539.509 347L540.829 344.885L541.444 344.045V343.955C540.904 343.835 540.474 343.6 540.154 343.25C539.844 342.9 539.689 342.435 539.689 341.855C539.689 341.115 539.929 340.54 540.409 340.13C540.899 339.71 541.609 339.5 542.539 339.5H545.929V347H544.504V345.47L544.519 344.165L543.799 344.18H543.364L542.764 344.165L541.129 347H539.509ZM544.519 343.07L544.504 342.29V341.315L544.519 340.61L543.709 340.625H542.719C541.629 340.625 541.084 341.035 541.084 341.855C541.084 342.655 541.629 343.055 542.719 343.055H543.709L544.519 343.07Z" fill="black"/>
</svg>
