<svg width="255" height="201" viewBox="0 0 255 201" fill="none" xmlns="http://www.w3.org/2000/svg">
<path d="M55.2239 152.996H199.776C217.231 152.996 226 144.355 226 127.236V25.76C226 8.64104 217.231 0 199.776 0H55.2239C37.8541 0.00354577 29 8.56303 29 25.76V127.24C29 144.441 37.8541 152.996 55.2239 152.996ZM167.709 76.2943C163.95 72.9719 159.692 71.2239 155.185 71.2239C150.506 71.2239 146.413 72.8053 142.572 76.2128L104.828 109.788L89.3791 95.8244C85.8695 92.7503 82.1105 91.0873 78.1057 91.0873C74.4286 91.0873 70.8371 92.6687 67.4166 95.7429L42.4469 118.092V26.4337C42.4469 17.7891 47.1216 13.3853 55.4733 13.3853H199.527C207.793 13.3853 212.553 17.7891 212.553 26.4337V118.181L167.709 76.2943ZM91.2141 77.2092C101.989 77.2092 110.839 68.4015 110.839 57.5975C110.839 46.8786 101.989 37.9858 91.2141 37.9858C80.3611 37.9858 71.5105 46.8786 71.5105 57.5975C71.5199 62.7953 73.5988 67.7776 77.2918 71.4534C80.9847 75.1292 85.9909 77.1988 91.2141 77.2092Z" fill="#56A9ED" fill-opacity="0.5"/>
<path d="M5.33244 174.34V170.695H6.93744C7.41744 169.515 7.70744 168.025 7.80744 166.225L8.04744 161.575H14.4224V168.655L14.3924 170.695H16.0724V174.34H14.7824V172H6.62244V174.34H5.33244ZM8.46744 170.71L11.2124 170.695L12.9674 170.71L12.9374 168.67V164.005L12.9674 162.85L11.7974 162.88H10.7624L9.45744 162.85L9.26244 166.3C9.17244 167.9 8.90744 169.315 8.46744 170.545V170.71ZM22.6449 171.1C22.0149 171.8 21.1699 172.15 20.1099 172.15C19.0499 172.15 18.1999 171.8 17.5599 171.1C16.9299 170.39 16.6149 169.445 16.6149 168.265C16.6149 167.075 16.9299 166.125 17.5599 165.415C18.1999 164.705 19.0499 164.35 20.1099 164.35C21.1699 164.35 22.0149 164.705 22.6449 165.415C23.2749 166.125 23.5899 167.075 23.5899 168.265C23.5899 169.455 23.2749 170.4 22.6449 171.1ZM18.5799 170.23C18.9599 170.7 19.4699 170.935 20.1099 170.935C20.7499 170.935 21.2499 170.7 21.6099 170.23C21.9799 169.75 22.1649 169.09 22.1649 168.25C22.1649 167.41 21.9799 166.755 21.6099 166.285C21.2499 165.805 20.7499 165.565 20.1099 165.565C19.4699 165.565 18.9599 165.805 18.5799 166.285C18.2099 166.755 18.0249 167.41 18.0249 168.25C18.0249 169.09 18.2099 169.75 18.5799 170.23ZM28.1837 172.105C26.8537 172.105 25.8837 171.6 25.2737 170.59C24.8137 169.86 24.5837 168.76 24.5837 167.29C24.5837 165.5 25.0587 164.095 26.0087 163.075C26.2587 162.795 26.5687 162.545 26.9387 162.325C27.3087 162.105 27.6087 161.955 27.8387 161.875C28.0687 161.785 28.3787 161.68 28.7687 161.56C29.2087 161.42 29.5287 161.285 29.7287 161.155C29.9287 161.025 30.0287 160.84 30.0287 160.6H31.6187C31.6087 161.05 31.4687 161.405 31.1987 161.665C30.9287 161.925 30.5187 162.165 29.9687 162.385C29.8387 162.435 29.5887 162.525 29.2187 162.655C28.8587 162.775 28.5787 162.88 28.3787 162.97C28.1787 163.05 27.9187 163.185 27.5987 163.375C27.2787 163.565 27.0237 163.765 26.8337 163.975C26.6537 164.185 26.4787 164.47 26.3087 164.83C26.1387 165.18 26.0237 165.575 25.9637 166.015H26.1737C26.6637 165.075 27.5137 164.605 28.7237 164.605C29.5837 164.605 30.2837 164.95 30.8237 165.64C31.3737 166.32 31.6487 167.225 31.6487 168.355C31.6487 169.465 31.3337 170.37 30.7037 171.07C30.0837 171.76 29.2437 172.105 28.1837 172.105ZM28.1837 170.905C28.7937 170.905 29.2837 170.675 29.6537 170.215C30.0337 169.755 30.2237 169.135 30.2237 168.355C30.2237 167.595 30.0337 166.98 29.6537 166.51C29.2837 166.04 28.7937 165.805 28.1837 165.805C27.5637 165.805 27.0587 166.04 26.6687 166.51C26.2787 166.98 26.0837 167.595 26.0837 168.355C26.0837 169.125 26.2637 169.745 26.6237 170.215C26.9937 170.675 27.5137 170.905 28.1837 170.905ZM35.1509 172.15C34.3909 172.15 33.7809 171.965 33.3209 171.595C32.8709 171.215 32.6459 170.72 32.6459 170.11C32.6459 169.85 32.6809 169.615 32.7509 169.405C32.8209 169.185 32.9009 169 32.9909 168.85C33.0909 168.69 33.2359 168.55 33.4259 168.43C33.6159 168.31 33.7859 168.21 33.9359 168.13C34.0959 168.05 34.3159 167.985 34.5959 167.935C34.8759 167.875 35.1009 167.835 35.2709 167.815C35.4509 167.785 35.7059 167.765 36.0359 167.755C36.3759 167.735 36.6259 167.725 36.7859 167.725C36.9559 167.725 37.2159 167.725 37.5659 167.725C37.6859 167.725 37.7759 167.725 37.8359 167.725V167.095C37.8359 166.635 37.6959 166.265 37.4159 165.985C37.1459 165.705 36.7559 165.565 36.2459 165.565C35.7159 165.565 35.2809 165.715 34.9409 166.015C34.6109 166.305 34.4159 166.71 34.3559 167.23L32.9759 167.155C33.0559 166.275 33.4009 165.59 34.0109 165.1C34.6209 164.6 35.3659 164.35 36.2459 164.35C37.1659 164.35 37.8959 164.605 38.4359 165.115C38.9859 165.615 39.2609 166.335 39.2609 167.275V172H38.1359L38.0459 170.725H37.8809C37.6909 171.165 37.3559 171.515 36.8759 171.775C36.4059 172.025 35.8309 172.15 35.1509 172.15ZM35.4959 170.89C36.1559 170.89 36.7109 170.7 37.1609 170.32C37.6109 169.93 37.8359 169.475 37.8359 168.955V168.835C36.3959 168.835 35.4459 168.9 34.9859 169.03C34.3859 169.21 34.0809 169.52 34.0709 169.96C34.0709 170.58 34.5459 170.89 35.4959 170.89ZM40.999 172V164.5H44.629C46.419 164.5 47.314 165.19 47.314 166.57C47.314 167.41 46.924 167.94 46.144 168.16V168.34C46.984 168.55 47.404 169.08 47.404 169.93C47.404 171.31 46.499 172 44.689 172H40.999ZM42.409 167.785L44.224 167.755C44.864 167.755 45.309 167.67 45.559 167.5C45.809 167.33 45.934 167.045 45.934 166.645C45.934 166.245 45.809 165.96 45.559 165.79C45.309 165.62 44.864 165.535 44.224 165.535H43.174L42.409 165.52L42.424 166.375V166.96L42.409 167.785ZM42.409 170.98L43.174 170.965H44.284C44.914 170.965 45.359 170.88 45.619 170.71C45.879 170.53 46.009 170.24 46.009 169.84C46.009 169.45 45.879 169.17 45.619 169C45.359 168.83 44.914 168.745 44.284 168.745H43.189L42.409 168.73L42.424 169.615V170.23L42.409 170.98ZM48.0891 172.03V170.77C48.7291 170.77 49.1791 170.55 49.4391 170.11C49.6991 169.66 49.8441 169.01 49.8741 168.16L50.0241 164.5H55.4091V172H53.9841V166.72L53.9991 165.685L53.0541 165.7H52.2591L51.3591 165.685L51.3291 166.585L51.2691 168.145C51.2191 169.425 50.9391 170.395 50.4291 171.055C49.9191 171.705 49.1391 172.03 48.0891 172.03ZM60.2484 172.15C59.1884 172.15 58.3284 171.8 57.6684 171.1C57.0084 170.39 56.6784 169.445 56.6784 168.265C56.6784 167.085 56.9934 166.14 57.6234 165.43C58.2634 164.71 59.1134 164.35 60.1734 164.35C61.2134 164.35 62.0434 164.705 62.6634 165.415C63.2834 166.125 63.5934 167.065 63.5934 168.235C63.5934 168.435 63.5884 168.58 63.5784 168.67H59.0934L58.0734 168.655C58.1134 169.365 58.3234 169.93 58.7034 170.35C59.0934 170.76 59.6084 170.965 60.2484 170.965C60.7684 170.965 61.1984 170.84 61.5384 170.59C61.8884 170.33 62.1234 169.965 62.2434 169.495L63.5334 169.615C63.3434 170.425 62.9584 171.05 62.3784 171.49C61.7984 171.93 61.0884 172.15 60.2484 172.15ZM58.1034 167.65L59.1234 167.62H61.1934L62.2284 167.65C62.1684 166.97 61.9484 166.445 61.5684 166.075C61.1984 165.705 60.7334 165.52 60.1734 165.52C59.6034 165.52 59.1284 165.705 58.7484 166.075C58.3684 166.445 58.1534 166.97 58.1034 167.65ZM64.9492 172V164.5H66.3742V166.3L66.3592 167.59L67.4692 167.575H68.9392L70.1842 167.59L70.1542 166.315V164.5H71.5792V172H70.1542V169.96L70.1842 168.745L68.9242 168.76H67.4692L66.3592 168.745L66.3742 169.96V172H64.9492ZM73.2549 172V164.5H74.6499V168.4L74.5149 170.14H74.7249L78.3399 164.5H79.9749V172H78.5799V168.1L78.7299 166.36H78.5049L74.8899 172H73.2549ZM84.8138 172.15C83.7538 172.15 82.8938 171.8 82.2338 171.1C81.5738 170.39 81.2438 169.445 81.2438 168.265C81.2438 167.085 81.5588 166.14 82.1888 165.43C82.8288 164.71 83.6788 164.35 84.7388 164.35C85.7788 164.35 86.6088 164.705 87.2288 165.415C87.8488 166.125 88.1588 167.065 88.1588 168.235C88.1588 168.435 88.1538 168.58 88.1438 168.67H83.6588L82.6388 168.655C82.6788 169.365 82.8888 169.93 83.2688 170.35C83.6588 170.76 84.1738 170.965 84.8138 170.965C85.3338 170.965 85.7638 170.84 86.1038 170.59C86.4538 170.33 86.6888 169.965 86.8088 169.495L88.0988 169.615C87.9088 170.425 87.5238 171.05 86.9438 171.49C86.3638 171.93 85.6538 172.15 84.8138 172.15ZM82.6688 167.65L83.6888 167.62H85.7588L86.7938 167.65C86.7338 166.97 86.5138 166.445 86.1338 166.075C85.7638 165.705 85.2988 165.52 84.7388 165.52C84.1688 165.52 83.6938 165.705 83.3138 166.075C82.9338 166.445 82.7188 166.97 82.6688 167.65ZM93.6895 175.6V164.5H95.1295V164.995L95.0395 165.85H95.2345C95.7345 164.89 96.5395 164.41 97.6495 164.41C98.5295 164.41 99.2645 164.755 99.8545 165.445C100.444 166.135 100.739 167.07 100.739 168.25C100.739 169.42 100.444 170.355 99.8545 171.055C99.2645 171.745 98.5295 172.09 97.6495 172.09C97.0795 172.09 96.5845 171.955 96.1645 171.685C95.7545 171.405 95.4445 171.055 95.2345 170.635H95.0395L95.1295 171.55V175.6H93.6895ZM97.2145 170.86C97.8245 170.86 98.3195 170.63 98.6995 170.17C99.0795 169.7 99.2695 169.06 99.2695 168.25C99.2695 167.44 99.0795 166.805 98.6995 166.345C98.3195 165.875 97.8245 165.64 97.2145 165.64C96.5845 165.64 96.0795 165.87 95.6995 166.33C95.3295 166.79 95.1445 167.43 95.1445 168.25C95.1445 169.06 95.3345 169.7 95.7145 170.17C96.0945 170.63 96.5945 170.86 97.2145 170.86ZM104.277 172.15C103.517 172.15 102.907 171.965 102.447 171.595C101.997 171.215 101.772 170.72 101.772 170.11C101.772 169.85 101.807 169.615 101.877 169.405C101.947 169.185 102.027 169 102.117 168.85C102.217 168.69 102.362 168.55 102.552 168.43C102.742 168.31 102.912 168.21 103.062 168.13C103.222 168.05 103.442 167.985 103.722 167.935C104.002 167.875 104.227 167.835 104.397 167.815C104.577 167.785 104.832 167.765 105.162 167.755C105.502 167.735 105.752 167.725 105.912 167.725C106.082 167.725 106.342 167.725 106.692 167.725C106.812 167.725 106.902 167.725 106.962 167.725V167.095C106.962 166.635 106.822 166.265 106.542 165.985C106.272 165.705 105.882 165.565 105.372 165.565C104.842 165.565 104.407 165.715 104.067 166.015C103.737 166.305 103.542 166.71 103.482 167.23L102.102 167.155C102.182 166.275 102.527 165.59 103.137 165.1C103.747 164.6 104.492 164.35 105.372 164.35C106.292 164.35 107.022 164.605 107.562 165.115C108.112 165.615 108.387 166.335 108.387 167.275V172H107.262L107.172 170.725H107.007C106.817 171.165 106.482 171.515 106.002 171.775C105.532 172.025 104.957 172.15 104.277 172.15ZM104.622 170.89C105.282 170.89 105.837 170.7 106.287 170.32C106.737 169.93 106.962 169.475 106.962 168.955V168.835C105.522 168.835 104.572 168.9 104.112 169.03C103.512 169.21 103.207 169.52 103.197 169.96C103.197 170.58 103.672 170.89 104.622 170.89ZM113.379 172.105C112.049 172.105 111.079 171.6 110.469 170.59C110.009 169.86 109.779 168.76 109.779 167.29C109.779 165.5 110.254 164.095 111.204 163.075C111.454 162.795 111.764 162.545 112.134 162.325C112.504 162.105 112.804 161.955 113.034 161.875C113.264 161.785 113.574 161.68 113.964 161.56C114.404 161.42 114.724 161.285 114.924 161.155C115.124 161.025 115.224 160.84 115.224 160.6H116.814C116.804 161.05 116.664 161.405 116.394 161.665C116.124 161.925 115.714 162.165 115.164 162.385C115.034 162.435 114.784 162.525 114.414 162.655C114.054 162.775 113.774 162.88 113.574 162.97C113.374 163.05 113.114 163.185 112.794 163.375C112.474 163.565 112.219 163.765 112.029 163.975C111.849 164.185 111.674 164.47 111.504 164.83C111.334 165.18 111.219 165.575 111.159 166.015H111.369C111.859 165.075 112.709 164.605 113.919 164.605C114.779 164.605 115.479 164.95 116.019 165.64C116.569 166.32 116.844 167.225 116.844 168.355C116.844 169.465 116.529 170.37 115.899 171.07C115.279 171.76 114.439 172.105 113.379 172.105ZM113.379 170.905C113.989 170.905 114.479 170.675 114.849 170.215C115.229 169.755 115.419 169.135 115.419 168.355C115.419 167.595 115.229 166.98 114.849 166.51C114.479 166.04 113.989 165.805 113.379 165.805C112.759 165.805 112.254 166.04 111.864 166.51C111.474 166.98 111.279 167.595 111.279 168.355C111.279 169.125 111.459 169.745 111.819 170.215C112.189 170.675 112.709 170.905 113.379 170.905ZM123.836 171.1C123.206 171.8 122.361 172.15 121.301 172.15C120.241 172.15 119.391 171.8 118.751 171.1C118.121 170.39 117.806 169.445 117.806 168.265C117.806 167.075 118.121 166.125 118.751 165.415C119.391 164.705 120.241 164.35 121.301 164.35C122.361 164.35 123.206 164.705 123.836 165.415C124.466 166.125 124.781 167.075 124.781 168.265C124.781 169.455 124.466 170.4 123.836 171.1ZM119.771 170.23C120.151 170.7 120.661 170.935 121.301 170.935C121.941 170.935 122.441 170.7 122.801 170.23C123.171 169.75 123.356 169.09 123.356 168.25C123.356 167.41 123.171 166.755 122.801 166.285C122.441 165.805 121.941 165.565 121.301 165.565C120.661 165.565 120.151 165.805 119.771 166.285C119.401 166.755 119.216 167.41 119.216 168.25C119.216 169.09 119.401 169.75 119.771 170.23ZM128.12 172V166.915L128.135 165.67L127.01 165.7H125.345V164.5H132.305V165.7H130.565L129.515 165.67L129.545 166.9V172H128.12ZM143.187 171.1C142.557 171.8 141.712 172.15 140.652 172.15C139.592 172.15 138.742 171.8 138.102 171.1C137.472 170.39 137.157 169.445 137.157 168.265C137.157 167.075 137.472 166.125 138.102 165.415C138.742 164.705 139.592 164.35 140.652 164.35C141.712 164.35 142.557 164.705 143.187 165.415C143.817 166.125 144.132 167.075 144.132 168.265C144.132 169.455 143.817 170.4 143.187 171.1ZM139.122 170.23C139.502 170.7 140.012 170.935 140.652 170.935C141.292 170.935 141.792 170.7 142.152 170.23C142.522 169.75 142.707 169.09 142.707 168.25C142.707 167.41 142.522 166.755 142.152 166.285C141.792 165.805 141.292 165.565 140.652 165.565C140.012 165.565 139.502 165.805 139.122 166.285C138.752 166.755 138.567 167.41 138.567 168.25C138.567 169.09 138.752 169.75 139.122 170.23ZM148.636 172.15C147.546 172.15 146.681 171.79 146.041 171.07C145.411 170.35 145.096 169.415 145.096 168.265C145.096 167.105 145.411 166.165 146.041 165.445C146.681 164.715 147.541 164.35 148.621 164.35C149.541 164.35 150.296 164.605 150.886 165.115C151.476 165.625 151.821 166.34 151.921 167.26L150.556 167.38C150.476 166.78 150.261 166.325 149.911 166.015C149.571 165.705 149.136 165.55 148.606 165.55C147.946 165.55 147.426 165.795 147.046 166.285C146.676 166.765 146.491 167.425 146.491 168.265C146.491 169.075 146.681 169.725 147.061 170.215C147.451 170.695 147.976 170.935 148.636 170.935C149.176 170.935 149.616 170.785 149.956 170.485C150.306 170.175 150.526 169.715 150.616 169.105L151.966 169.225C151.876 170.145 151.531 170.865 150.931 171.385C150.341 171.895 149.576 172.15 148.636 172.15ZM153.884 175.615C153.594 175.615 153.234 175.6 152.804 175.57V174.295C153.244 174.315 153.519 174.325 153.629 174.325C154.039 174.325 154.359 174.225 154.589 174.025C154.829 173.835 155.049 173.495 155.249 173.005L155.609 172.12L152.444 164.5H154.064L155.939 169.42L156.194 170.485H156.374L156.644 169.42L158.384 164.5H159.989L156.599 173.17C156.249 174.09 155.869 174.725 155.459 175.075C155.049 175.435 154.524 175.615 153.884 175.615ZM171.647 170.785H172.772V174.34H171.482V172H161.072V164.5H162.497V169.315L162.482 170.815L163.637 170.785H164.462L165.557 170.815L165.527 169.27V164.5H166.922V169.27L166.907 170.815L168.107 170.785H168.962L169.967 170.815L169.937 169.195V164.5H171.362V170.8L171.647 170.785ZM176.952 172.15C175.892 172.15 175.032 171.8 174.372 171.1C173.712 170.39 173.382 169.445 173.382 168.265C173.382 167.085 173.697 166.14 174.327 165.43C174.967 164.71 175.817 164.35 176.877 164.35C177.917 164.35 178.747 164.705 179.367 165.415C179.987 166.125 180.297 167.065 180.297 168.235C180.297 168.435 180.292 168.58 180.282 168.67H175.797L174.777 168.655C174.817 169.365 175.027 169.93 175.407 170.35C175.797 170.76 176.312 170.965 176.952 170.965C177.472 170.965 177.902 170.84 178.242 170.59C178.592 170.33 178.827 169.965 178.947 169.495L180.237 169.615C180.047 170.425 179.662 171.05 179.082 171.49C178.502 171.93 177.792 172.15 176.952 172.15ZM174.807 167.65L175.827 167.62H177.897L178.932 167.65C178.872 166.97 178.652 166.445 178.272 166.075C177.902 165.705 177.437 165.52 176.877 165.52C176.307 165.52 175.832 165.705 175.452 166.075C175.072 166.445 174.857 166.97 174.807 167.65ZM184.833 172.15C183.743 172.15 182.878 171.79 182.238 171.07C181.608 170.35 181.293 169.415 181.293 168.265C181.293 167.105 181.608 166.165 182.238 165.445C182.878 164.715 183.738 164.35 184.818 164.35C185.738 164.35 186.493 164.605 187.083 165.115C187.673 165.625 188.018 166.34 188.118 167.26L186.753 167.38C186.673 166.78 186.458 166.325 186.108 166.015C185.768 165.705 185.333 165.55 184.803 165.55C184.143 165.55 183.623 165.795 183.243 166.285C182.873 166.765 182.688 167.425 182.688 168.265C182.688 169.075 182.878 169.725 183.258 170.215C183.648 170.695 184.173 170.935 184.833 170.935C185.373 170.935 185.813 170.785 186.153 170.485C186.503 170.175 186.723 169.715 186.813 169.105L188.163 169.225C188.073 170.145 187.728 170.865 187.128 171.385C186.538 171.895 185.773 172.15 184.833 172.15ZM191.445 172V166.915L191.46 165.67L190.335 165.7H188.67V164.5H195.63V165.7H193.89L192.84 165.67L192.87 166.9V172H191.445ZM196.771 172V164.5H200.401C202.191 164.5 203.086 165.19 203.086 166.57C203.086 167.41 202.696 167.94 201.916 168.16V168.34C202.756 168.55 203.176 169.08 203.176 169.93C203.176 171.31 202.271 172 200.461 172H196.771ZM198.181 167.785L199.996 167.755C200.636 167.755 201.081 167.67 201.331 167.5C201.581 167.33 201.706 167.045 201.706 166.645C201.706 166.245 201.581 165.96 201.331 165.79C201.081 165.62 200.636 165.535 199.996 165.535H198.946L198.181 165.52L198.196 166.375V166.96L198.181 167.785ZM198.181 170.98L198.946 170.965H200.056C200.686 170.965 201.131 170.88 201.391 170.71C201.651 170.53 201.781 170.24 201.781 169.84C201.781 169.45 201.651 169.17 201.391 169C201.131 168.83 200.686 168.745 200.056 168.745H198.961L198.181 168.73L198.196 169.615V170.23L198.181 170.98ZM203.861 172.03V170.77C204.501 170.77 204.951 170.55 205.211 170.11C205.471 169.66 205.616 169.01 205.646 168.16L205.796 164.5H211.181V172H209.756V166.72L209.771 165.685L208.826 165.7H208.031L207.131 165.685L207.101 166.585L207.041 168.145C206.991 169.425 206.711 170.395 206.201 171.055C205.691 171.705 204.911 172.03 203.861 172.03ZM212.403 172L213.723 169.885L214.338 169.045V168.955C213.798 168.835 213.368 168.6 213.048 168.25C212.738 167.9 212.583 167.435 212.583 166.855C212.583 166.115 212.823 165.54 213.303 165.13C213.793 164.71 214.503 164.5 215.433 164.5H218.823V172H217.398V170.47L217.413 169.165L216.693 169.18H216.258L215.658 169.165L214.023 172H212.403ZM217.413 168.07L217.398 167.29V166.315L217.413 165.61L216.603 165.625H215.613C214.523 165.625 213.978 166.035 213.978 166.855C213.978 167.655 214.523 168.055 215.613 168.055H216.603L217.413 168.07ZM223.666 172.15C222.606 172.15 221.746 171.8 221.086 171.1C220.426 170.39 220.096 169.445 220.096 168.265C220.096 167.085 220.411 166.14 221.041 165.43C221.681 164.71 222.531 164.35 223.591 164.35C224.631 164.35 225.461 164.705 226.081 165.415C226.701 166.125 227.011 167.065 227.011 168.235C227.011 168.435 227.006 168.58 226.996 168.67H222.511L221.491 168.655C221.531 169.365 221.741 169.93 222.121 170.35C222.511 170.76 223.026 170.965 223.666 170.965C224.186 170.965 224.616 170.84 224.956 170.59C225.306 170.33 225.541 169.965 225.661 169.495L226.951 169.615C226.761 170.425 226.376 171.05 225.796 171.49C225.216 171.93 224.506 172.15 223.666 172.15ZM221.521 167.65L222.541 167.62H224.611L225.646 167.65C225.586 166.97 225.366 166.445 224.986 166.075C224.616 165.705 224.151 165.52 223.591 165.52C223.021 165.52 222.546 165.705 222.166 166.075C221.786 166.445 221.571 166.97 221.521 167.65ZM230.395 172V166.915L230.41 165.67L229.285 165.7H227.62V164.5H234.58V165.7H232.84L231.79 165.67L231.82 166.9V172H230.395ZM238.666 172.15C237.576 172.15 236.711 171.79 236.071 171.07C235.441 170.35 235.126 169.415 235.126 168.265C235.126 167.105 235.441 166.165 236.071 165.445C236.711 164.715 237.571 164.35 238.651 164.35C239.571 164.35 240.326 164.605 240.916 165.115C241.506 165.625 241.851 166.34 241.951 167.26L240.586 167.38C240.506 166.78 240.291 166.325 239.941 166.015C239.601 165.705 239.166 165.55 238.636 165.55C237.976 165.55 237.456 165.795 237.076 166.285C236.706 166.765 236.521 167.425 236.521 168.265C236.521 169.075 236.711 169.725 237.091 170.215C237.481 170.695 238.006 170.935 238.666 170.935C239.206 170.935 239.646 170.785 239.986 170.485C240.336 170.175 240.556 169.715 240.646 169.105L241.996 169.225C241.906 170.145 241.561 170.865 240.961 171.385C240.371 171.895 239.606 172.15 238.666 172.15ZM242.725 172L244.045 169.885L244.66 169.045V168.955C244.12 168.835 243.69 168.6 243.37 168.25C243.06 167.9 242.905 167.435 242.905 166.855C242.905 166.115 243.145 165.54 243.625 165.13C244.115 164.71 244.825 164.5 245.755 164.5H249.145V172H247.72V170.47L247.735 169.165L247.015 169.18H246.58L245.98 169.165L244.345 172H242.725ZM247.735 168.07L247.72 167.29V166.315L247.735 165.61L246.925 165.625H245.935C244.845 165.625 244.3 166.035 244.3 166.855C244.3 167.655 244.845 168.055 245.935 168.055H246.925L247.735 168.07ZM22.7992 194V191.945L22.9342 190.94H22.7692C22.2592 191.35 21.6042 191.555 20.8042 191.555C19.9642 191.555 19.2792 191.36 18.7492 190.97C18.2192 190.57 17.9542 189.94 17.9542 189.08V186.5H19.3792V188.975C19.3792 189.465 19.5192 189.815 19.7992 190.025C20.0792 190.235 20.4942 190.34 21.0442 190.34C21.6642 190.34 22.2492 190.225 22.7992 189.995V186.5H24.2242V194H22.7992ZM29.0765 194.15C28.0165 194.15 27.1565 193.8 26.4965 193.1C25.8365 192.39 25.5065 191.445 25.5065 190.265C25.5065 189.085 25.8215 188.14 26.4515 187.43C27.0915 186.71 27.9415 186.35 29.0015 186.35C30.0415 186.35 30.8715 186.705 31.4915 187.415C32.1115 188.125 32.4215 189.065 32.4215 190.235C32.4215 190.435 32.4165 190.58 32.4065 190.67H27.9215L26.9015 190.655C26.9415 191.365 27.1515 191.93 27.5315 192.35C27.9215 192.76 28.4365 192.965 29.0765 192.965C29.5965 192.965 30.0265 192.84 30.3665 192.59C30.7165 192.33 30.9515 191.965 31.0715 191.495L32.3615 191.615C32.1715 192.425 31.7865 193.05 31.2065 193.49C30.6265 193.93 29.9165 194.15 29.0765 194.15ZM26.9315 189.65L27.9515 189.62H30.0215L31.0565 189.65C30.9965 188.97 30.7765 188.445 30.3965 188.075C30.0265 187.705 29.5615 187.52 29.0015 187.52C28.4315 187.52 27.9565 187.705 27.5765 188.075C27.1965 188.445 26.9815 188.97 26.9315 189.65ZM33.6748 197.6V186.5H35.1148V186.995L35.0248 187.85H35.2198C35.7198 186.89 36.5248 186.41 37.6348 186.41C38.5148 186.41 39.2498 186.755 39.8398 187.445C40.4298 188.135 40.7248 189.07 40.7248 190.25C40.7248 191.42 40.4298 192.355 39.8398 193.055C39.2498 193.745 38.5148 194.09 37.6348 194.09C37.0648 194.09 36.5698 193.955 36.1498 193.685C35.7398 193.405 35.4298 193.055 35.2198 192.635H35.0248L35.1148 193.55V197.6H33.6748ZM37.1998 192.86C37.8098 192.86 38.3048 192.63 38.6848 192.17C39.0648 191.7 39.2548 191.06 39.2548 190.25C39.2548 189.44 39.0648 188.805 38.6848 188.345C38.3048 187.875 37.8098 187.64 37.1998 187.64C36.5698 187.64 36.0648 187.87 35.6848 188.33C35.3148 188.79 35.1298 189.43 35.1298 190.25C35.1298 191.06 35.3198 191.7 35.6998 192.17C36.0798 192.63 36.5798 192.86 37.1998 192.86ZM45.2923 194.15C44.2323 194.15 43.3723 193.8 42.7123 193.1C42.0523 192.39 41.7223 191.445 41.7223 190.265C41.7223 189.085 42.0373 188.14 42.6673 187.43C43.3073 186.71 44.1573 186.35 45.2173 186.35C46.2573 186.35 47.0873 186.705 47.7073 187.415C48.3273 188.125 48.6373 189.065 48.6373 190.235C48.6373 190.435 48.6323 190.58 48.6223 190.67H44.1373L43.1173 190.655C43.1573 191.365 43.3673 191.93 43.7473 192.35C44.1373 192.76 44.6523 192.965 45.2923 192.965C45.8123 192.965 46.2423 192.84 46.5823 192.59C46.9323 192.33 47.1673 191.965 47.2873 191.495L48.5773 191.615C48.3873 192.425 48.0023 193.05 47.4223 193.49C46.8423 193.93 46.1323 194.15 45.2923 194.15ZM43.1473 189.65L44.1673 189.62H46.2373L47.2723 189.65C47.2123 188.97 46.9923 188.445 46.6123 188.075C46.2423 187.705 45.7773 187.52 45.2173 187.52C44.6473 187.52 44.1723 187.705 43.7923 188.075C43.4123 188.445 43.1973 188.97 43.1473 189.65ZM52.8142 194.15C51.8942 194.15 51.1242 193.95 50.5042 193.55C49.8942 193.15 49.5442 192.545 49.4542 191.735L50.8792 191.615C50.9492 192.055 51.1492 192.39 51.4792 192.62C51.8192 192.85 52.2642 192.965 52.8142 192.965C53.3442 192.965 53.7592 192.855 54.0592 192.635C54.3692 192.415 54.5242 192.115 54.5242 191.735C54.5242 190.925 53.9692 190.52 52.8592 190.52H52.5592V189.65H52.8592C53.8292 189.65 54.3142 189.305 54.3142 188.615C54.3142 188.275 54.1842 188.01 53.9242 187.82C53.6742 187.62 53.3242 187.52 52.8742 187.52C51.8642 187.52 51.2792 187.955 51.1192 188.825L49.7992 188.705C49.8892 187.975 50.2042 187.4 50.7442 186.98C51.2942 186.56 52.0042 186.35 52.8742 186.35C53.7242 186.35 54.3992 186.55 54.8992 186.95C55.3992 187.35 55.6492 187.865 55.6492 188.495C55.6492 189.235 55.2842 189.725 54.5542 189.965V190.145C54.9642 190.225 55.2942 190.415 55.5442 190.715C55.7942 191.005 55.9192 191.38 55.9192 191.84C55.9192 192.53 55.6392 193.09 55.0792 193.52C54.5292 193.94 53.7742 194.15 52.8142 194.15ZM61.3457 197.6V186.5H62.7857V186.995L62.6957 187.85H62.8907C63.3907 186.89 64.1957 186.41 65.3057 186.41C66.1857 186.41 66.9207 186.755 67.5107 187.445C68.1007 188.135 68.3957 189.07 68.3957 190.25C68.3957 191.42 68.1007 192.355 67.5107 193.055C66.9207 193.745 66.1857 194.09 65.3057 194.09C64.7357 194.09 64.2407 193.955 63.8207 193.685C63.4107 193.405 63.1007 193.055 62.8907 192.635H62.6957L62.7857 193.55V197.6H61.3457ZM64.8707 192.86C65.4807 192.86 65.9757 192.63 66.3557 192.17C66.7357 191.7 66.9257 191.06 66.9257 190.25C66.9257 189.44 66.7357 188.805 66.3557 188.345C65.9757 187.875 65.4807 187.64 64.8707 187.64C64.2407 187.64 63.7357 187.87 63.3557 188.33C62.9857 188.79 62.8007 189.43 62.8007 190.25C62.8007 191.06 62.9907 191.7 63.3707 192.17C63.7507 192.63 64.2507 192.86 64.8707 192.86ZM72.9632 194.15C71.9032 194.15 71.0432 193.8 70.3832 193.1C69.7232 192.39 69.3932 191.445 69.3932 190.265C69.3932 189.085 69.7082 188.14 70.3382 187.43C70.9782 186.71 71.8282 186.35 72.8882 186.35C73.9282 186.35 74.7582 186.705 75.3782 187.415C75.9982 188.125 76.3082 189.065 76.3082 190.235C76.3082 190.435 76.3032 190.58 76.2932 190.67H71.8082L70.7882 190.655C70.8282 191.365 71.0382 191.93 71.4182 192.35C71.8082 192.76 72.3232 192.965 72.9632 192.965C73.4832 192.965 73.9132 192.84 74.2532 192.59C74.6032 192.33 74.8382 191.965 74.9582 191.495L76.2482 191.615C76.0582 192.425 75.6732 193.05 75.0932 193.49C74.5132 193.93 73.8032 194.15 72.9632 194.15ZM70.8182 189.65L71.8382 189.62H73.9082L74.9432 189.65C74.8832 188.97 74.6632 188.445 74.2832 188.075C73.9132 187.705 73.4482 187.52 72.8882 187.52C72.3182 187.52 71.8432 187.705 71.4632 188.075C71.0832 188.445 70.8682 188.97 70.8182 189.65ZM76.5671 196.28V192.785H77.8571C78.2171 192.075 78.4271 191.2 78.4871 190.16L78.7121 186.5H84.0371V192.785H85.3871V196.28H84.0971V194.885L84.1121 193.985L83.0921 194H79.0421L77.8421 193.985L77.8571 194.885V196.28H76.5671ZM79.2971 192.815L80.5421 192.785H81.6371L82.6571 192.815L82.6271 191.3V188.855L82.6571 187.67L81.6521 187.7H81.0221L80.0321 187.67L79.8671 190.235C79.7871 191.345 79.5971 192.165 79.2971 192.695V192.815ZM88.6617 194.15C87.9017 194.15 87.2917 193.965 86.8317 193.595C86.3817 193.215 86.1567 192.72 86.1567 192.11C86.1567 191.85 86.1917 191.615 86.2617 191.405C86.3317 191.185 86.4117 191 86.5017 190.85C86.6017 190.69 86.7467 190.55 86.9367 190.43C87.1267 190.31 87.2967 190.21 87.4467 190.13C87.6067 190.05 87.8267 189.985 88.1067 189.935C88.3867 189.875 88.6117 189.835 88.7817 189.815C88.9617 189.785 89.2167 189.765 89.5467 189.755C89.8867 189.735 90.1367 189.725 90.2967 189.725C90.4667 189.725 90.7267 189.725 91.0767 189.725C91.1967 189.725 91.2867 189.725 91.3467 189.725V189.095C91.3467 188.635 91.2067 188.265 90.9267 187.985C90.6567 187.705 90.2667 187.565 89.7567 187.565C89.2267 187.565 88.7917 187.715 88.4517 188.015C88.1217 188.305 87.9267 188.71 87.8667 189.23L86.4867 189.155C86.5667 188.275 86.9117 187.59 87.5217 187.1C88.1317 186.6 88.8767 186.35 89.7567 186.35C90.6767 186.35 91.4067 186.605 91.9467 187.115C92.4967 187.615 92.7717 188.335 92.7717 189.275V194H91.6467L91.5567 192.725H91.3917C91.2017 193.165 90.8667 193.515 90.3867 193.775C89.9167 194.025 89.3417 194.15 88.6617 194.15ZM89.0067 192.89C89.6667 192.89 90.2217 192.7 90.6717 192.32C91.1217 191.93 91.3467 191.475 91.3467 190.955V190.835C89.9067 190.835 88.9567 190.9 88.4967 191.03C87.8967 191.21 87.5917 191.52 87.5817 191.96C87.5817 192.58 88.0567 192.89 89.0067 192.89ZM101.35 186.5V186.59L98.0648 189.65L101.35 193.88V194H99.6548L97.1048 190.535L95.9348 191.63V194H94.5098V186.5H95.9348V189.125L95.8448 190.22H96.0098L96.6248 189.35L99.5648 186.5H101.35ZM104.639 194V188.915L104.654 187.67L103.529 187.7H101.864V186.5H108.824V187.7H107.084L106.034 187.67L106.064 188.9V194H104.639ZM109.964 194V186.5H111.359V190.4L111.224 192.14H111.434L115.049 186.5H116.684V194H115.289V190.1L115.439 188.36H115.214L111.599 194H109.964ZM118.27 197.6V186.5H119.71V186.995L119.62 187.85H119.815C120.315 186.89 121.12 186.41 122.23 186.41C123.11 186.41 123.845 186.755 124.435 187.445C125.025 188.135 125.32 189.07 125.32 190.25C125.32 191.42 125.025 192.355 124.435 193.055C123.845 193.745 123.11 194.09 122.23 194.09C121.66 194.09 121.165 193.955 120.745 193.685C120.335 193.405 120.025 193.055 119.815 192.635H119.62L119.71 193.55V197.6H118.27ZM121.795 192.86C122.405 192.86 122.9 192.63 123.28 192.17C123.66 191.7 123.85 191.06 123.85 190.25C123.85 189.44 123.66 188.805 123.28 188.345C122.9 187.875 122.405 187.64 121.795 187.64C121.165 187.64 120.66 187.87 120.28 188.33C119.91 188.79 119.725 189.43 119.725 190.25C119.725 191.06 119.915 191.7 120.295 192.17C120.675 192.63 121.175 192.86 121.795 192.86ZM132.347 193.1C131.717 193.8 130.872 194.15 129.812 194.15C128.752 194.15 127.902 193.8 127.262 193.1C126.632 192.39 126.317 191.445 126.317 190.265C126.317 189.075 126.632 188.125 127.262 187.415C127.902 186.705 128.752 186.35 129.812 186.35C130.872 186.35 131.717 186.705 132.347 187.415C132.977 188.125 133.292 189.075 133.292 190.265C133.292 191.455 132.977 192.4 132.347 193.1ZM128.282 192.23C128.662 192.7 129.172 192.935 129.812 192.935C130.452 192.935 130.952 192.7 131.312 192.23C131.682 191.75 131.867 191.09 131.867 190.25C131.867 189.41 131.682 188.755 131.312 188.285C130.952 187.805 130.452 187.565 129.812 187.565C129.172 187.565 128.662 187.805 128.282 188.285C127.912 188.755 127.727 189.41 127.727 190.25C127.727 191.09 127.912 191.75 128.282 192.23ZM134.573 194V186.5H138.203C139.993 186.5 140.888 187.19 140.888 188.57C140.888 189.41 140.498 189.94 139.718 190.16V190.34C140.558 190.55 140.978 191.08 140.978 191.93C140.978 193.31 140.073 194 138.263 194H134.573ZM135.983 189.785L137.798 189.755C138.438 189.755 138.883 189.67 139.133 189.5C139.383 189.33 139.508 189.045 139.508 188.645C139.508 188.245 139.383 187.96 139.133 187.79C138.883 187.62 138.438 187.535 137.798 187.535H136.748L135.983 187.52L135.998 188.375V188.96L135.983 189.785ZM135.983 192.98L136.748 192.965H137.858C138.488 192.965 138.933 192.88 139.193 192.71C139.453 192.53 139.583 192.24 139.583 191.84C139.583 191.45 139.453 191.17 139.193 191C138.933 190.83 138.488 190.745 137.858 190.745H136.763L135.983 190.73L135.998 191.615V192.23L135.983 192.98ZM144.604 194.15C143.844 194.15 143.234 193.965 142.774 193.595C142.324 193.215 142.099 192.72 142.099 192.11C142.099 191.85 142.134 191.615 142.204 191.405C142.274 191.185 142.354 191 142.444 190.85C142.544 190.69 142.689 190.55 142.879 190.43C143.069 190.31 143.239 190.21 143.389 190.13C143.549 190.05 143.769 189.985 144.049 189.935C144.329 189.875 144.554 189.835 144.724 189.815C144.904 189.785 145.159 189.765 145.489 189.755C145.829 189.735 146.079 189.725 146.239 189.725C146.409 189.725 146.669 189.725 147.019 189.725C147.139 189.725 147.229 189.725 147.289 189.725V189.095C147.289 188.635 147.149 188.265 146.869 187.985C146.599 187.705 146.209 187.565 145.699 187.565C145.169 187.565 144.734 187.715 144.394 188.015C144.064 188.305 143.869 188.71 143.809 189.23L142.429 189.155C142.509 188.275 142.854 187.59 143.464 187.1C144.074 186.6 144.819 186.35 145.699 186.35C146.619 186.35 147.349 186.605 147.889 187.115C148.439 187.615 148.714 188.335 148.714 189.275V194H147.589L147.499 192.725H147.334C147.144 193.165 146.809 193.515 146.329 193.775C145.859 194.025 145.284 194.15 144.604 194.15ZM144.949 192.89C145.609 192.89 146.164 192.7 146.614 192.32C147.064 191.93 147.289 191.475 147.289 190.955V190.835C145.849 190.835 144.899 190.9 144.439 191.03C143.839 191.21 143.534 191.52 143.524 191.96C143.524 192.58 143.999 192.89 144.949 192.89ZM150.452 194V186.5H151.877V188.3L151.862 189.59L152.972 189.575H154.442L155.687 189.59L155.657 188.315V186.5H157.082V194H155.657V191.96L155.687 190.745L154.427 190.76H152.972L151.862 190.745L151.877 191.96V194H150.452ZM158.758 194V186.5H160.153V190.4L160.018 192.14H160.228L163.843 186.5H165.478V194H164.083V190.1L164.233 188.36H164.008L160.393 194H158.758ZM170.317 194.15C169.257 194.15 168.397 193.8 167.737 193.1C167.077 192.39 166.747 191.445 166.747 190.265C166.747 189.085 167.062 188.14 167.692 187.43C168.332 186.71 169.182 186.35 170.242 186.35C171.282 186.35 172.112 186.705 172.732 187.415C173.352 188.125 173.662 189.065 173.662 190.235C173.662 190.435 173.657 190.58 173.647 190.67H169.162L168.142 190.655C168.182 191.365 168.392 191.93 168.772 192.35C169.162 192.76 169.677 192.965 170.317 192.965C170.837 192.965 171.267 192.84 171.607 192.59C171.957 192.33 172.192 191.965 172.312 191.495L173.602 191.615C173.412 192.425 173.027 193.05 172.447 193.49C171.867 193.93 171.157 194.15 170.317 194.15ZM168.172 189.65L169.192 189.62H171.262L172.297 189.65C172.237 188.97 172.017 188.445 171.637 188.075C171.267 187.705 170.802 187.52 170.242 187.52C169.672 187.52 169.197 187.705 168.817 188.075C168.437 188.445 168.222 188.97 168.172 189.65ZM179.192 194V186.5H185.822V194H184.397V189.275L184.412 187.67L182.942 187.7H181.922L180.602 187.67L180.617 189.26V194H179.192ZM187.41 197.6V186.5H188.85V186.995L188.76 187.85H188.955C189.455 186.89 190.26 186.41 191.37 186.41C192.25 186.41 192.985 186.755 193.575 187.445C194.165 188.135 194.46 189.07 194.46 190.25C194.46 191.42 194.165 192.355 193.575 193.055C192.985 193.745 192.25 194.09 191.37 194.09C190.8 194.09 190.305 193.955 189.885 193.685C189.475 193.405 189.165 193.055 188.955 192.635H188.76L188.85 193.55V197.6H187.41ZM190.935 192.86C191.545 192.86 192.04 192.63 192.42 192.17C192.8 191.7 192.99 191.06 192.99 190.25C192.99 189.44 192.8 188.805 192.42 188.345C192.04 187.875 191.545 187.64 190.935 187.64C190.305 187.64 189.8 187.87 189.42 188.33C189.05 188.79 188.865 189.43 188.865 190.25C188.865 191.06 189.055 191.7 189.435 192.17C189.815 192.63 190.315 192.86 190.935 192.86ZM201.488 193.1C200.858 193.8 200.013 194.15 198.953 194.15C197.893 194.15 197.043 193.8 196.403 193.1C195.773 192.39 195.458 191.445 195.458 190.265C195.458 189.075 195.773 188.125 196.403 187.415C197.043 186.705 197.893 186.35 198.953 186.35C200.013 186.35 200.858 186.705 201.488 187.415C202.118 188.125 202.433 189.075 202.433 190.265C202.433 191.455 202.118 192.4 201.488 193.1ZM197.423 192.23C197.803 192.7 198.313 192.935 198.953 192.935C199.593 192.935 200.093 192.7 200.453 192.23C200.823 191.75 201.008 191.09 201.008 190.25C201.008 189.41 200.823 188.755 200.453 188.285C200.093 187.805 199.593 187.565 198.953 187.565C198.313 187.565 197.803 187.805 197.423 188.285C197.053 188.755 196.868 189.41 196.868 190.25C196.868 191.09 197.053 191.75 197.423 192.23ZM207.478 197.6V195.32L207.508 194.165C206.138 194.095 205.103 193.71 204.403 193.01C203.713 192.31 203.368 191.395 203.368 190.265C203.368 189.125 203.713 188.205 204.403 187.505C205.103 186.795 206.138 186.405 207.508 186.335L207.478 185.345V183.575H208.903V185.315L208.873 186.335C210.253 186.405 211.288 186.79 211.978 187.49C212.678 188.19 213.028 189.115 213.028 190.265C213.028 191.415 212.678 192.335 211.978 193.025C211.288 193.715 210.253 194.095 208.873 194.165L208.903 195.335V197.6H207.478ZM208.873 192.98C209.803 192.93 210.493 192.665 210.943 192.185C211.403 191.695 211.633 191.05 211.633 190.25C211.633 189.45 211.403 188.81 210.943 188.33C210.493 187.84 209.803 187.57 208.873 187.52L208.903 188.675V191.705L208.873 192.98ZM207.508 192.965L207.478 191.705V188.66L207.508 187.535C206.608 187.585 205.928 187.855 205.468 188.345C205.008 188.825 204.778 189.46 204.778 190.25C204.778 191.03 205.008 191.665 205.468 192.155C205.928 192.635 206.608 192.905 207.508 192.965ZM214.334 194V186.5H215.729V190.4L215.594 192.14H215.804L219.419 186.5H221.054V194H219.659V190.1L219.809 188.36H219.584L215.969 194H214.334ZM221.966 194.03V192.77C222.606 192.77 223.056 192.55 223.316 192.11C223.576 191.66 223.721 191.01 223.751 190.16L223.901 186.5H229.286V194H227.861V188.72L227.876 187.685L226.931 187.7H226.136L225.236 187.685L225.206 188.585L225.146 190.145C225.096 191.425 224.816 192.395 224.306 193.055C223.796 193.705 223.016 194.03 221.966 194.03ZM230.509 194L231.829 191.885L232.444 191.045V190.955C231.904 190.835 231.474 190.6 231.154 190.25C230.844 189.9 230.689 189.435 230.689 188.855C230.689 188.115 230.929 187.54 231.409 187.13C231.899 186.71 232.609 186.5 233.539 186.5H236.929V194H235.504V192.47L235.519 191.165L234.799 191.18H234.364L233.764 191.165L232.129 194H230.509ZM235.519 190.07L235.504 189.29V188.315L235.519 187.61L234.709 187.625H233.719C232.629 187.625 232.084 188.035 232.084 188.855C232.084 189.655 232.629 190.055 233.719 190.055H234.709L235.519 190.07Z" fill="black"/>
</svg>
